<?xml version="1.0" encoding="UTF-8" standalone="no"?>
<!-- Created with Inkscape (http://www.inkscape.org/) -->

<svg
   xmlns:dc="http://purl.org/dc/elements/1.1/"
   xmlns:cc="http://creativecommons.org/ns#"
   xmlns:rdf="http://www.w3.org/1999/02/22-rdf-syntax-ns#"
   xmlns:svg="http://www.w3.org/2000/svg"
   xmlns="http://www.w3.org/2000/svg"
   xmlns:sodipodi="http://sodipodi.sourceforge.net/DTD/sodipodi-0.dtd"
   xmlns:inkscape="http://www.inkscape.org/namespaces/inkscape"
   width="89.485962mm"
   height="90.235519mm"
   viewBox="0 0 89.485965 90.235525"
   version="1.1"
   id="svg6847"
   inkscape:version="0.92.3 (2405546, 2018-03-11)"
   sodipodi:docname="dibujo_26.svg">
  <defs
     id="defs6841" />
  <sodipodi:namedview
     id="base"
     pagecolor="#ffffff"
     bordercolor="#666666"
     borderopacity="1.0"
     inkscape:pageopacity="0.0"
     inkscape:pageshadow="2"
     inkscape:zoom="0.35"
     inkscape:cx="353.50564"
     inkscape:cy="-75.152395"
     inkscape:document-units="mm"
     inkscape:current-layer="layer1"
     showgrid="false"
     fit-margin-top="0"
     fit-margin-left="0"
     fit-margin-right="0"
     fit-margin-bottom="0"
     inkscape:window-width="1853"
     inkscape:window-height="1025"
     inkscape:window-x="67"
     inkscape:window-y="27"
     inkscape:window-maximized="1" />
  <metadata
     id="metadata6844">
    <rdf:RDF>
      <cc:Work
         rdf:about="">
        <dc:format>image/svg+xml</dc:format>
        <dc:type
           rdf:resource="http://purl.org/dc/dcmitype/StillImage" />
        <dc:title></dc:title>
      </cc:Work>
    </rdf:RDF>
  </metadata>
  <g
     inkscape:label="Capa 1"
     inkscape:groupmode="layer"
     id="layer1"
     transform="translate(-12.301634,-38.713724)">
    <g
       transform="matrix(0.35277777,0,0,-0.35277777,-300.95367,880.33397)"
       id="g7537">
      <g
         transform="translate(1046.9321,2381.5195)"
         id="g1182">
        <path
           inkscape:connector-curvature="0"
           id="path1184"
           style="fill:#00354b;fill-opacity:1;fill-rule:nonzero;stroke:none"
           d="m 0,0 -0.006,-0.056 -0.028,-0.08 z" />
      </g>
      <g
         transform="translate(988.9229,2376.3848)"
         id="g1186">
        <path
           inkscape:connector-curvature="0"
           id="path1188"
           style="fill:#ffeac2;fill-opacity:1;fill-rule:nonzero;stroke:none"
           d="m 0,0 c 6.112,-1.441 15.347,-3.618 26.06,-3.618 10.44,0 19.385,2.144 25.302,3.573 2.294,0.548 5.028,1.122 5.955,1.189 L 57.14,1.165 57.146,1.206 C 57.212,1.188 57.242,1.185 57.351,1.149 55.377,-4.535 51.87,-9.655 47.169,-13.569 c -5.965,-4.959 -13.515,-7.684 -21.29,-7.684 -7.765,0 -15.333,2.725 -21.289,7.684 C -0.097,-9.663 -3.594,-4.544 -5.573,1.144 -4.632,1.077 -2.226,0.526 0,0" />
      </g>
      <g
         transform="translate(912.8223,2297.8311)"
         id="g1190">
        <path
           inkscape:connector-curvature="0"
           id="path1192"
           style="fill:#fcd7b9;fill-opacity:1;fill-rule:nonzero;stroke:none"
           d="m 0,0 -15.691,38.596 49.074,30.043 c 0.118,0.037 0.344,0.103 0.5,0.15 1.709,-1.772 2.89,-4.136 3.646,-6.26 C 39.76,56.317 40.437,47.406 39.514,36.752 38.702,27.457 36.765,18.799 33.925,11.735 32.386,7.933 30.954,5.054 29.531,2.927 c -0.344,0.055 -0.686,0.141 -1.026,0.1 z" />
      </g>
      <g
         transform="translate(1039.5811,2138.5674)"
         id="g1194">
        <path
           inkscape:connector-curvature="0"
           id="path1196"
           style="fill:#ffeac2;fill-opacity:1;fill-rule:nonzero;stroke:none"
           d="m 0,0 -16.291,44.727 c -0.054,0.144 -0.108,0.281 -0.18,0.423 -1.937,3.868 -4.966,6.084 -8.313,6.084 -3.337,0 -6.368,-2.216 -8.308,-6.076 -0.075,-0.137 -0.129,-0.279 -0.184,-0.431 L -49.566,0 l -50.814,8.564 6.692,145.486 -0.057,4.239 c -0.003,0.457 -0.142,0.894 -0.292,1.316 1.667,2.426 3.293,5.647 4.988,9.864 2.992,7.438 5.023,16.494 5.868,26.191 0.993,11.241 0.225,20.752 -2.199,27.516 -0.929,2.587 -2.04,4.565 -3.228,6.144 7.578,2.267 21.419,6.395 28.454,8.492 2.209,-6.457 6.164,-12.271 11.472,-16.697 3.627,-3.02 7.791,-5.269 12.224,-6.728 -2.13,-1.809 -3.796,-4.641 -4.361,-7.994 v -30.651 c 0,-1.129 0.917,-2.041 2.042,-2.041 h 16.551 c 1.126,0 2.04,0.912 2.04,2.041 0,1.127 -0.914,2.041 -2.04,2.041 h -14.521 l -0.03,28.257 c 0.655,3.749 3.453,6.39 5.541,6.402 l 6.123,0.045 c 0.015,0 0.021,0.011 0.045,0.011 0.088,0 0.187,-0.016 0.284,-0.016 8.719,0 17.204,3.069 23.902,8.642 5.324,4.426 9.271,10.239 11.478,16.688 6.975,-2.074 20.657,-6.156 28.28,-8.431 -1.206,-1.59 -2.331,-3.575 -3.267,-6.205 -2.427,-6.774 -3.183,-16.283 -2.205,-27.506 0.84,-9.691 2.872,-18.746 5.871,-26.201 1.764,-4.352 3.436,-7.637 5.174,-10.096 -0.129,-0.382 -0.264,-0.762 -0.264,-1.168 L 44.13,153.809 50.817,8.564 Z" />
      </g>
      <g
         transform="translate(1116.7671,2297.8115)"
         id="g1198">
        <path
           inkscape:connector-curvature="0"
           id="path1200"
           style="fill:#fcd7b9;fill-opacity:1;fill-rule:nonzero;stroke:none"
           d="m 0,0 -28.504,2.963 c -0.398,0.039 -0.774,-0.051 -1.157,-0.119 -1.452,2.135 -2.899,5.039 -4.463,8.902 -2.848,7.082 -4.776,15.74 -5.591,25.025 -0.932,10.645 -0.247,19.564 1.979,25.778 0.764,2.139 1.952,4.539 3.691,6.306 0.232,-0.062 0.503,-0.14 0.653,-0.193 L 15.68,38.615 Z" />
      </g>
      <g
         transform="translate(1009.0752,2344.6572)"
         id="g1202">
        <path
           inkscape:connector-curvature="0"
           id="path1204"
           style="fill:#00354b;fill-opacity:1;fill-rule:nonzero;stroke:none"
           d="m 0,0 c 1.691,0 3.06,-1.373 3.06,-3.058 0,-1.686 -1.369,-3.061 -3.06,-3.061 -1.687,0 -3.056,1.375 -3.056,3.061 C -3.056,-1.373 -1.687,0 0,0" />
      </g>
      <g
         transform="translate(1009.0752,2328.3271)"
         id="g1206">
        <path
           inkscape:connector-curvature="0"
           id="path1208"
           style="fill:#00354b;fill-opacity:1;fill-rule:nonzero;stroke:none"
           d="m 0,0 c 1.691,0 3.06,-1.371 3.06,-3.054 0,-1.69 -1.369,-3.061 -3.06,-3.061 -1.687,0 -3.056,1.371 -3.056,3.061 C -3.056,-1.371 -1.687,0 0,0" />
      </g>
      <g
         transform="translate(1014.7031,2228.5107)"
         id="g1210">
        <path
           inkscape:connector-curvature="0"
           id="path1212"
           style="fill:#fcd7b9;fill-opacity:1;fill-rule:nonzero;stroke:none"
           d="m 0,0 c -14.627,0 -26.539,11.726 -26.539,26.139 0,6.617 2.537,12.662 6.666,17.271 0.548,0.451 1.18,1.041 1.907,1.799 0.18,0.201 0.304,0.352 0.461,0.535 4.68,4.059 10.803,6.546 17.505,6.546 7.099,0 13.532,-2.765 18.299,-7.24 0.323,-0.333 0.623,-0.638 0.911,-0.909 4.537,-4.686 7.334,-11.024 7.334,-18.002 C 26.544,11.726 14.633,0 0,0" />
      </g>
      <g
         transform="translate(1041.187,2269.7881)"
         id="g1214">
        <path
           inkscape:connector-curvature="0"
           id="path1216"
           style="fill:#00354b;fill-opacity:1;fill-rule:nonzero;stroke:none"
           d="m 0,0 c -0.473,0.797 -0.974,1.574 -1.516,2.324 0.731,1.067 1.145,2.336 1.145,3.666 0,1.699 -0.636,3.274 -1.776,4.481 -1.135,1.203 -2.632,1.867 -4.241,1.867 -1.556,0 -2.985,-0.625 -4.104,-1.731 -0.767,0.456 -1.551,0.903 -2.355,1.289 0.151,0.186 0.247,0.425 0.41,0.592 1.624,1.707 3.778,2.637 6.039,2.637 2.266,0 4.395,-0.93 6.012,-2.637 C 2.896,9.058 3.001,3.607 0,0 m -26.484,-41.277 c -14.627,0 -26.538,11.725 -26.538,26.138 0,6.618 2.536,12.662 6.665,17.272 0.548,0.451 1.18,1.041 1.907,1.799 0.18,0.201 0.304,0.351 0.461,0.535 4.68,4.058 10.803,6.546 17.505,6.546 7.099,0 13.532,-2.765 18.299,-7.241 0.323,-0.333 0.623,-0.637 0.912,-0.909 4.536,-4.685 7.333,-11.023 7.333,-18.002 0,-14.413 -11.911,-26.138 -26.544,-26.138 m -25.957,53.775 c 1.621,1.697 3.765,2.627 6.039,2.627 2.266,0 4.406,-0.93 6.034,-2.637 0.147,-0.158 0.277,-0.345 0.414,-0.513 -0.82,-0.411 -1.626,-0.842 -2.406,-1.313 -1.109,1.068 -2.523,1.676 -4.036,1.676 -1.612,0 -3.119,-0.664 -4.252,-1.867 -1.138,-1.196 -1.767,-2.782 -1.767,-4.473 0,-1.299 0.373,-2.526 1.06,-3.57 -0.545,-0.758 -1.053,-1.53 -1.532,-2.331 -2.887,3.598 -2.761,9.002 0.446,12.401 M 2.572,15.31 c -4.778,5.042 -13.133,5.046 -17.972,0 -0.551,-0.582 -0.984,-1.182 -1.369,-1.784 -3.056,1.013 -6.313,1.578 -9.7,1.578 -3.365,0 -6.596,-0.561 -9.628,-1.556 -0.367,0.599 -0.77,1.19 -1.312,1.762 -4.794,5.042 -13.174,5.042 -17.98,-0.009 -4.849,-5.135 -4.849,-13.481 0.006,-18.61 0.178,-0.18 0.361,-0.326 0.541,-0.492 -1.437,-3.5 -2.246,-7.317 -2.246,-11.328 0,-16.672 13.731,-30.233 30.623,-30.233 16.888,0 30.616,13.561 30.616,30.233 0,3.977 -0.797,7.758 -2.217,11.24 0.217,0.2 0.424,0.362 0.631,0.58 4.918,5.129 4.928,13.475 0.007,18.619" />
      </g>
      <g
         transform="translate(988.7461,2282.2861)"
         id="g1218">
        <path
           inkscape:connector-curvature="0"
           id="path1220"
           style="fill:#fcd7b9;fill-opacity:1;fill-rule:nonzero;stroke:none"
           d="m 0,0 c 1.621,1.697 3.765,2.627 6.039,2.627 2.266,0 4.406,-0.93 6.034,-2.637 0.147,-0.158 0.277,-0.345 0.414,-0.513 -0.82,-0.411 -1.626,-0.842 -2.406,-1.313 C 8.972,-0.768 7.558,-0.16 6.045,-0.16 4.433,-0.16 2.926,-0.824 1.792,-2.027 0.655,-3.223 0.026,-4.809 0.026,-6.5 c 0,-1.299 0.373,-2.526 1.06,-3.57 C 0.541,-10.828 0.033,-11.6 -0.446,-12.401 -3.333,-8.803 -3.207,-3.399 0,0" />
      </g>
      <g
         transform="translate(1041.187,2269.7881)"
         id="g1222">
        <path
           inkscape:connector-curvature="0"
           id="path1224"
           style="fill:#fcd7b9;fill-opacity:1;fill-rule:nonzero;stroke:none"
           d="m 0,0 c -0.473,0.797 -0.974,1.574 -1.516,2.324 0.731,1.067 1.145,2.336 1.145,3.666 0,1.699 -0.636,3.274 -1.776,4.481 -1.135,1.203 -2.632,1.867 -4.241,1.867 -1.556,0 -2.985,-0.625 -4.104,-1.731 -0.767,0.456 -1.551,0.903 -2.355,1.289 0.151,0.186 0.247,0.425 0.41,0.592 1.624,1.707 3.778,2.637 6.039,2.637 2.266,0 4.395,-0.93 6.012,-2.637 C 2.896,9.058 3.001,3.607 0,0" />
      </g>
      <g
         transform="translate(1016.7485,2237.0479)"
         id="g1226">
        <path
           inkscape:connector-curvature="0"
           id="path1228"
           style="fill:#00354b;fill-opacity:1;fill-rule:nonzero;stroke:none"
           d="m 0,0 v 3.65 c 1.928,0.846 3.282,2.832 3.282,5.167 0,3.078 -2.389,3.853 -5.327,3.853 -2.93,0 -5.282,-0.775 -5.282,-3.853 0,-2.329 1.335,-4.321 3.245,-5.167 V 0 c -4.226,0.997 -7.399,5.006 -7.399,9.791 0,3.293 1.14,6.338 9.436,6.338 8.295,0 9.444,-3.045 9.444,-6.338 C 7.399,5.006 4.223,1.004 0,0 m -2.045,20.211 c -8.976,0 -13.52,-3.509 -13.52,-10.42 0,-7.784 6.057,-14.129 13.52,-14.129 7.459,0 13.525,6.345 13.525,14.129 0,6.911 -4.55,10.42 -13.525,10.42" />
      </g>
      <g
         transform="translate(1006.5576,2257.5527)"
         id="g1230">
        <path
           inkscape:connector-curvature="0"
           id="path1232"
           style="fill:#00354b;fill-opacity:1;fill-rule:nonzero;stroke:none"
           d="M 0,0 C 1.333,0 2.449,1.149 2.449,2.593 2.449,4.001 1.327,5.167 0,5.167 -1.362,5.167 -2.448,4.001 -2.457,2.593 -2.457,1.165 -1.362,0 0,0" />
      </g>
      <g
         transform="translate(1022.8931,2257.5596)"
         id="g1234">
        <path
           inkscape:connector-curvature="0"
           id="path1236"
           style="fill:#00354b;fill-opacity:1;fill-rule:nonzero;stroke:none"
           d="M 0,0 C 1.324,0 2.452,1.143 2.452,2.586 2.452,3.994 1.324,5.16 0,5.16 -1.369,5.16 -2.455,3.994 -2.455,2.586 -2.445,1.158 -1.369,0 0,0" />
      </g>
      <g
         transform="translate(1116.7671,2297.8115)"
         id="g1238">
        <path
           inkscape:connector-curvature="0"
           id="path1240"
           style="fill:#00354b;fill-opacity:1;fill-rule:nonzero;stroke:none"
           d="m 0,0 -28.504,2.963 c -0.398,0.039 -0.774,-0.051 -1.157,-0.119 -1.452,2.135 -2.899,5.039 -4.463,8.902 -2.848,7.082 -4.776,15.74 -5.591,25.025 -0.932,10.645 -0.247,19.564 1.979,25.778 0.764,2.139 1.952,4.539 3.691,6.306 0.232,-0.062 0.503,-0.14 0.653,-0.193 L 15.68,38.615 Z m -77.186,-159.244 -16.291,44.726 c -0.054,0.145 -0.108,0.282 -0.18,0.424 -1.937,3.867 -4.966,6.084 -8.313,6.084 -3.337,0 -6.368,-2.217 -8.308,-6.076 -0.076,-0.137 -0.129,-0.279 -0.184,-0.432 l -16.29,-44.726 -50.814,8.564 6.692,145.486 -0.057,4.239 c -0.003,0.457 -0.142,0.893 -0.292,1.316 1.667,2.426 3.293,5.647 4.988,9.864 2.992,7.438 5.023,16.494 5.868,26.191 0.992,11.241 0.225,20.752 -2.199,27.516 -0.929,2.587 -2.04,4.565 -3.228,6.144 7.578,2.267 21.419,6.395 28.454,8.492 2.209,-6.457 6.164,-12.271 11.472,-16.697 3.627,-3.02 7.791,-5.269 12.224,-6.728 -2.13,-1.809 -3.796,-4.641 -4.361,-7.995 v -30.65 c 0,-1.129 0.917,-2.041 2.042,-2.041 h 16.551 c 1.126,0 2.04,0.912 2.04,2.041 0,1.127 -0.914,2.041 -2.04,2.041 h -14.521 l -0.03,28.257 c 0.655,3.749 3.453,6.39 5.541,6.402 l 6.123,0.045 c 0.015,0 0.021,0.011 0.045,0.011 0.088,0 0.187,-0.016 0.284,-0.016 8.719,0 17.204,3.069 23.902,8.642 5.324,4.426 9.271,10.239 11.478,16.688 6.975,-2.074 20.657,-6.156 28.28,-8.431 -1.206,-1.59 -2.331,-3.575 -3.267,-6.205 -2.427,-6.774 -3.183,-16.284 -2.205,-27.506 0.84,-9.692 2.872,-18.746 5.871,-26.201 1.764,-4.352 3.436,-7.637 5.174,-10.096 -0.129,-0.382 -0.264,-0.762 -0.264,-1.168 l -0.055,-4.397 6.687,-145.244 z M -203.945,0.02 l -15.691,38.595 49.074,30.043 c 0.119,0.037 0.344,0.104 0.5,0.151 1.709,-1.773 2.891,-4.136 3.646,-6.26 2.231,-6.212 2.908,-15.123 1.985,-25.778 -0.812,-9.294 -2.749,-17.953 -5.589,-25.016 -1.539,-3.803 -2.971,-6.682 -4.394,-8.809 -0.343,0.056 -0.686,0.142 -1.025,0.101 z m 76.101,78.553 c 6.112,-1.441 15.346,-3.618 26.059,-3.618 10.441,0 19.386,2.145 25.303,3.573 2.294,0.548 5.028,1.122 5.955,1.189 l -0.177,0.021 0.005,0.041 c 0.067,-0.017 0.097,-0.021 0.205,-0.056 -1.973,-5.685 -5.48,-10.805 -10.181,-14.719 -5.965,-4.959 -13.515,-7.684 -21.29,-7.684 -7.765,0 -15.333,2.725 -21.289,7.684 -4.687,3.906 -8.184,9.025 -10.163,14.713 0.941,-0.067 3.347,-0.617 5.573,-1.144 m 58.009,5.135 -0.006,-0.056 -0.028,-0.08 z M 22.914,43.767 -29.597,75.912 c -0.366,0.223 -0.764,0.382 -1.167,0.479 -38.153,11.384 -38.153,11.384 -38.529,11.431 L -69.3,87.754 c -2.144,0.348 -4.798,-0.256 -9.099,-1.296 -5.868,-1.411 -13.911,-3.337 -23.391,-3.337 -9.763,0 -18.438,2.046 -24.181,3.404 -4.151,0.979 -6.677,1.569 -8.667,1.289 v 0.008 c -0.03,0 -0.067,-0.008 -0.109,-0.015 -0.545,-0.11 -3.414,-0.964 -38.395,-11.401 -0.418,-0.093 -0.823,-0.262 -1.199,-0.494 l -52.508,-32.145 c -1.696,-1.044 -2.403,-3.167 -1.651,-5.015 l 18.155,-44.648 c 0.685,-1.692 2.4,-2.695 4.211,-2.526 l 27.089,2.875 -6.841,-148.371 c -0.087,-2.059 1.368,-3.867 3.405,-4.209 l 57.732,-9.721 c 1.921,-0.3 3.835,0.776 4.503,2.633 l 17.364,47.67 c 0.385,0.716 0.716,1.092 0.917,1.274 0.199,-0.182 0.536,-0.558 0.912,-1.274 l 17.361,-47.67 c 0.598,-1.637 2.138,-2.687 3.835,-2.687 0.232,0 0.445,0.015 0.679,0.054 l 57.739,9.721 c 2.039,0.342 3.489,2.15 3.404,4.209 l -6.84,148.309 27.089,-2.805 c 1.826,-0.177 3.525,0.842 4.204,2.511 l 18.147,44.664 c 0.746,1.839 0.045,3.962 -1.651,5.006" />
      </g>
      <g
         transform="translate(1016.7485,2237.0479)"
         id="g1242">
        <path
           inkscape:connector-curvature="0"
           id="path1244"
           style="fill:#ffeac2;fill-opacity:1;fill-rule:nonzero;stroke:none"
           d="m 0,0 v 3.65 c 1.928,0.846 3.282,2.832 3.282,5.167 0,3.078 -2.389,3.853 -5.327,3.853 -2.93,0 -5.282,-0.775 -5.282,-3.853 0,-2.329 1.335,-4.321 3.245,-5.167 V 0 c -4.226,0.997 -7.399,5.006 -7.399,9.791 0,3.293 1.14,6.338 9.436,6.338 8.295,0 9.444,-3.045 9.444,-6.338 C 7.399,5.006 4.223,1.004 0,0" />
      </g>
    </g>
  </g>
</svg>
